<svg version="1.1" id="Layer_1" xmlns="http://www.w3.org/2000/svg" xmlns:xlink="http://www.w3.org/1999/xlink" x="0px" y="0px"
	 width="100%" viewBox="0 0 306 392" enable-background="new 0 0 306 392" xml:space="preserve">
<path fill="#000000" opacity="1.000000" stroke="none" 
	d="
M1.000000,104.000000 
	C1.000000,69.345566 1.000000,35.191135 1.000000,1.018353 
	C102.951241,1.018353 204.902481,1.018353 306.926880,1.018353 
	C306.926880,131.571075 306.926880,262.142212 306.926880,392.856689 
	C205.000137,392.856689 103.000099,392.856689 1.000000,392.856689 
	C1.000000,296.764282 1.000000,200.632141 1.000000,104.000000 
M9.029813,56.925835 
	C9.071878,63.282299 9.113943,69.638763 9.033528,76.925766 
	C9.080605,83.614273 9.127681,90.302780 9.053019,97.921379 
	C9.090060,103.611671 9.127102,109.301956 9.036654,115.922684 
	C9.069955,122.946457 9.103255,129.970230 9.018640,137.925522 
	C9.066985,146.277649 9.115330,154.629791 9.039970,163.914246 
	C9.082561,172.603760 9.125152,181.293289 9.046161,190.915268 
	C9.082378,200.603333 9.118597,210.291397 9.037840,220.913788 
	C9.079111,228.605484 9.120381,236.297165 9.051672,244.921799 
	C9.087473,254.273804 9.123274,263.625793 9.051476,273.912415 
	C9.034492,300.740875 8.927220,327.569763 9.040920,354.397644 
	C9.093036,366.694489 15.110514,375.744385 25.405123,382.078827 
	C32.479946,386.432068 40.500832,386.903595 48.449284,386.914307 
	C119.770592,387.010376 191.092056,386.984283 262.413483,387.002106 
	C268.760284,387.003723 274.879181,386.365356 280.566376,383.020966 
	C291.001068,376.884705 297.786438,368.220856 297.896942,355.918365 
	C298.194763,322.759888 297.959961,289.596863 298.035797,256.435883 
	C298.049774,250.312836 298.528656,244.190857 298.914246,237.123718 
	C298.877014,227.112930 298.839783,217.102142 298.919098,206.149231 
	C298.890930,199.429047 298.862793,192.708878 298.932434,185.057434 
	C298.899261,175.034332 298.866119,165.011246 298.937164,154.057419 
	C298.901276,146.033936 298.865387,138.010452 298.936951,129.056931 
	C298.901367,121.702126 298.865784,114.347313 298.883453,106.250221 
	C297.954895,104.190117 297.478760,101.707245 296.018219,100.144279 
	C290.190369,93.907761 284.056183,87.957489 277.725952,81.306351 
	C270.504425,74.158974 263.282898,67.011597 255.753159,59.267799 
	C251.873749,55.828743 247.994354,52.389690 243.794724,48.345058 
	C240.474167,44.895607 237.153610,41.446152 233.692581,37.323837 
	C228.406113,32.178886 223.119629,27.033936 217.566299,21.184599 
	C215.049301,18.774384 212.233261,16.602592 210.080292,13.902156 
	C206.127426,8.944103 201.264313,6.536621 194.935684,6.989310 
	C192.641815,7.153391 190.333572,7.116678 187.098831,7.039359 
	C139.346725,7.025558 91.594597,6.994414 43.842499,7.010621 
	C32.450642,7.014487 23.072439,11.559485 16.175905,20.548767 
	C14.159498,23.177050 13.465714,26.820042 11.804462,30.673983 
	C8.467630,36.764408 8.878829,43.366497 9.040807,50.808952 
	C9.078890,52.537945 9.116974,54.266933 9.029813,56.925835 
z"/>
<path fill="#15405A" opacity="1.000000" stroke="none" 
	d="
M298.792969,238.068390 
	C298.528656,244.190857 298.049774,250.312836 298.035797,256.435883 
	C297.959961,289.596863 298.194763,322.759888 297.896942,355.918365 
	C297.786438,368.220856 291.001068,376.884705 280.566376,383.020966 
	C274.879181,386.365356 268.760284,387.003723 262.413483,387.002106 
	C191.092056,386.984283 119.770592,387.010376 48.449284,386.914307 
	C40.500832,386.903595 32.479946,386.432068 25.405123,382.078827 
	C15.110514,375.744385 9.093036,366.694489 9.040920,354.397644 
	C8.927220,327.569763 9.034492,300.740875 9.448119,273.362732 
	C12.947363,271.836334 16.043098,270.837158 19.154169,269.888214 
	C23.793297,268.473206 29.600521,270.327026 32.890175,265.453003 
	C32.637955,273.208191 32.104202,280.495392 32.062653,287.785400 
	C31.942131,308.931641 31.886114,330.080231 32.090752,351.225159 
	C32.162476,358.636108 36.879654,362.977753 44.108543,362.980927 
	C117.706497,363.013367 191.304489,363.016418 264.902344,362.928558 
	C266.712921,362.926361 268.681580,362.058685 270.300232,361.118866 
	C274.181274,358.865417 275.038757,355.141724 275.037384,350.877075 
	C275.025604,314.913116 275.108948,278.949158 275.613281,242.988312 
	C278.206360,242.988449 280.494354,243.473129 282.465668,242.889023 
	C287.905365,241.277206 294.726044,244.238312 298.792969,238.068390 
z"/>
<path fill="#437499" opacity="1.000000" stroke="none" 
	d="
M12.165707,29.997944 
	C13.465714,26.820042 14.159498,23.177050 16.175905,20.548767 
	C23.072439,11.559485 32.450642,7.014487 43.842499,7.010621 
	C91.594597,6.994414 139.346725,7.025558 187.682831,7.392768 
	C186.426193,8.825300 184.692703,10.550229 182.727142,10.876331 
	C171.842026,12.682269 160.885925,14.055463 149.984283,15.768669 
	C144.504471,16.629827 139.113419,18.051329 133.636612,18.937445 
	C128.099472,19.833323 122.517509,20.497448 116.934097,21.050241 
	C110.507767,21.686487 104.045738,21.966005 97.621849,22.622068 
	C87.567726,23.648882 77.538307,24.915464 67.487976,25.982023 
	C55.469849,27.257406 43.441925,28.441315 31.414953,29.631598 
	C29.773058,29.794094 28.112587,29.792900 26.459957,29.818338 
	C21.695415,29.891676 16.930485,29.939873 12.165707,29.997944 
z"/>
<path fill="#417296" opacity="1.000000" stroke="none" 
	d="
M11.985085,30.335964 
	C16.930485,29.939873 21.695415,29.891676 26.459957,29.818338 
	C28.112587,29.792900 29.773058,29.794094 31.414953,29.631598 
	C43.441925,28.441315 55.469849,27.257406 67.487976,25.982023 
	C77.538307,24.915464 87.567726,23.648882 97.621849,22.622068 
	C104.045738,21.966005 110.507767,21.686487 116.934097,21.050241 
	C122.517509,20.497448 128.099472,19.833323 133.636612,18.937445 
	C139.113419,18.051329 144.504471,16.629827 149.984283,15.768669 
	C160.885925,14.055463 171.842026,12.682269 182.727142,10.876331 
	C184.692703,10.550229 186.426193,8.825300 188.149353,7.458882 
	C190.333572,7.116678 192.641815,7.153391 194.935684,6.989310 
	C201.264313,6.536621 206.127426,8.944103 210.080292,13.902156 
	C212.233261,16.602592 215.049301,18.774384 217.233124,21.556606 
	C201.922134,23.655231 186.922546,25.218182 171.979172,27.204071 
	C167.240631,27.833796 162.651993,29.591391 157.529892,30.893814 
	C119.599762,30.970463 82.133270,31.138607 44.670498,30.839943 
	C38.951542,30.794348 34.085281,34.408894 32.745659,40.099617 
	C28.080463,41.106022 23.817627,42.654236 19.494411,42.846783 
	C14.241739,43.080723 10.613592,44.660915 9.172662,49.952560 
	C8.878829,43.366497 8.467630,36.764408 11.985085,30.335964 
z"/>
<path fill="#30607F" opacity="1.000000" stroke="none" 
	d="
M278.035400,81.901268 
	C284.056183,87.957489 290.190369,93.907761 296.018219,100.144279 
	C297.478760,101.707245 297.954895,104.190117 298.493805,106.647987 
	C292.032593,110.618233 285.435364,111.618637 278.514404,111.076157 
	C278.027008,111.037949 277.525604,111.198723 277.029175,111.253014 
	C262.511871,112.840805 247.983566,114.338242 233.488235,116.106140 
	C231.245926,116.379608 229.154648,117.891487 226.529892,118.887329 
	C222.429214,118.959610 218.757156,119.307091 215.161819,118.927597 
	C205.035980,117.858788 197.437790,112.667885 192.628189,103.992844 
	C200.517593,105.099159 207.251282,102.241264 214.036392,100.004265 
	C215.605621,99.486900 216.685410,97.485085 218.456009,96.104187 
	C231.637085,96.042007 244.352554,96.042007 258.065216,96.042007 
	C255.515152,93.154030 253.699585,91.097855 252.234024,88.876175 
	C253.966705,88.182869 255.308289,87.454826 256.739014,87.161278 
	C263.574951,85.758705 270.437988,84.488319 277.277496,83.102425 
	C277.598114,83.037453 277.785797,82.316643 278.035400,81.901268 
z"/>
<path fill="#3B6C8D" opacity="1.000000" stroke="none" 
	d="
M233.833069,37.996693 
	C237.153610,41.446152 240.474167,44.895607 243.564850,48.812340 
	C234.186615,50.533379 225.038223,51.787140 215.572418,52.885735 
	C210.513580,50.432537 210.111465,50.660389 209.995041,55.697502 
	C209.946564,57.794796 209.889160,59.891884 209.398209,61.991798 
	C201.695053,62.326092 194.429489,62.657650 187.106476,62.524506 
	C187.088455,55.371201 187.127899,48.682602 187.578918,42.004997 
	C193.418228,41.902958 198.857285,41.967903 204.270279,41.623482 
	C209.044281,41.319729 213.792480,40.585487 218.546021,39.992786 
	C223.645386,39.356956 228.737686,38.664459 233.833069,37.996693 
z"/>
<path fill="#3E6F92" opacity="1.000000" stroke="none" 
	d="
M233.762817,37.660263 
	C228.737686,38.664459 223.645386,39.356956 218.546021,39.992786 
	C213.792480,40.585487 209.044281,41.319729 204.270279,41.623482 
	C198.857285,41.967903 193.418228,41.902958 187.518616,41.547649 
	C187.046722,37.833660 187.046722,34.588013 187.046722,30.832844 
	C176.835220,30.832844 167.414993,30.832844 157.994751,30.832848 
	C162.651993,29.591391 167.240631,27.833796 171.979172,27.204071 
	C186.922546,25.218182 201.922134,23.655231 217.366547,21.908798 
	C223.119629,27.033936 228.406113,32.178886 233.762817,37.660263 
z"/>
<path fill="#2E5C7B" opacity="1.000000" stroke="none" 
	d="
M226.993530,118.830673 
	C229.154648,117.891487 231.245926,116.379608 233.488235,116.106140 
	C247.983566,114.338242 262.511871,112.840805 277.029175,111.253014 
	C277.525604,111.198723 278.027008,111.037949 278.514404,111.076157 
	C285.435364,111.618637 292.032593,110.618233 298.467163,107.019135 
	C298.865784,114.347313 298.901367,121.702126 298.508545,129.552307 
	C290.776581,131.027939 283.473022,132.008179 276.115417,132.527100 
	C276.061371,128.160614 276.061371,124.255440 276.061371,119.683533 
	C259.108398,119.388870 243.050964,119.109772 226.993530,118.830673 
z"/>
<path fill="#366687" opacity="1.000000" stroke="none" 
	d="
M277.880676,81.603806 
	C277.785797,82.316643 277.598114,83.037453 277.277496,83.102425 
	C270.437988,84.488319 263.574951,85.758705 256.739014,87.161278 
	C255.308289,87.454826 253.966705,88.182869 251.943329,88.721924 
	C243.826172,81.169083 236.349747,73.604996 229.227173,65.875221 
	C235.770172,64.806221 241.996307,64.094765 248.131592,62.912140 
	C250.868973,62.384487 253.423737,60.909340 256.061371,59.864220 
	C263.282898,67.011597 270.504425,74.158974 277.880676,81.603806 
z"/>
<path fill="#24516E" opacity="1.000000" stroke="none" 
	d="
M298.832977,154.988144 
	C298.866119,165.011246 298.899261,175.034332 298.528259,185.607025 
	C294.845703,187.089661 291.617035,188.319199 288.276123,188.879105 
	C284.289520,189.547241 280.206787,189.641815 276.115875,189.519531 
	C276.098816,178.698685 276.131561,168.343201 276.579193,157.980713 
	C284.273712,156.978531 291.553345,155.983337 298.832977,154.988144 
z"/>
<path fill="#24516E" opacity="1.000000" stroke="none" 
	d="
M9.154815,219.979462 
	C9.118597,210.291397 9.082378,200.603333 9.473516,190.367920 
	C12.102284,189.218185 14.277775,188.486450 16.510246,188.039047 
	C21.936720,186.951477 27.389666,185.996017 32.893188,185.453522 
	C32.908894,195.274429 32.863354,204.629181 32.473732,214.077271 
	C29.227890,215.113220 26.370304,216.237274 23.414272,216.956924 
	C18.695522,218.105743 13.911333,218.985779 9.154815,219.979462 
z"/>
<path fill="#1E4A66" opacity="1.000000" stroke="none" 
	d="
M276.165680,189.984863 
	C280.206787,189.641815 284.289520,189.547241 288.276123,188.879105 
	C291.617035,188.319199 294.845703,187.089661 298.479370,186.072662 
	C298.862793,192.708878 298.890930,199.429047 298.675476,206.962326 
	C298.287079,209.078766 297.901001,210.408783 298.041656,211.680573 
	C298.515289,215.963348 296.424164,217.739639 292.417877,217.957733 
	C286.666107,218.270828 280.917480,218.642319 275.117371,218.535278 
	C275.433380,208.716049 275.799530,199.350464 276.165680,189.984863 
z"/>
<path fill="#295675" opacity="1.000000" stroke="none" 
	d="
M32.831947,184.987350 
	C27.389666,185.996017 21.936720,186.951477 16.510246,188.039047 
	C14.277775,188.486450 12.102284,189.218185 9.534307,189.901703 
	C9.125152,181.293289 9.082561,172.603760 9.430680,163.330246 
	C11.732661,161.847870 13.661707,160.155396 15.551924,160.197708 
	C21.594955,160.332962 27.363125,159.642029 32.895515,157.454727 
	C32.915936,166.942841 32.873943,175.965103 32.831947,184.987350 
z"/>
<path fill="#1A4561" opacity="1.000000" stroke="none" 
	d="
M32.833485,264.986298 
	C29.600521,270.327026 23.793297,268.473206 19.154169,269.888214 
	C16.043098,270.837158 12.947363,271.836334 9.501918,272.895447 
	C9.123274,263.625793 9.087473,254.273804 9.532595,244.457718 
	C15.053295,243.662628 20.097462,243.385788 25.131023,242.978058 
	C27.701172,242.769867 30.252300,242.326859 32.864731,242.456802 
	C32.889450,250.277847 32.861469,257.632080 32.833485,264.986298 
z"/>
<path fill="#1E4A66" opacity="1.000000" stroke="none" 
	d="
M32.812023,241.989990 
	C30.252300,242.326859 27.701172,242.769867 25.131023,242.978058 
	C20.097462,243.385788 15.053295,243.662628 9.587584,243.991241 
	C9.120381,236.297165 9.079111,228.605484 9.096327,220.446625 
	C13.911333,218.985779 18.695522,218.105743 23.414272,216.956924 
	C26.370304,216.237274 29.227890,215.113220 32.537292,214.543488 
	C32.900635,223.940887 32.856331,232.965439 32.812023,241.989990 
z"/>
<path fill="#2E5C7B" opacity="1.000000" stroke="none" 
	d="
M32.833103,156.988861 
	C27.363125,159.642029 21.594955,160.332962 15.551924,160.197708 
	C13.661707,160.155396 11.732661,161.847870 9.492533,162.864075 
	C9.115330,154.629791 9.066985,146.277649 9.473174,137.431442 
	C17.564390,135.956177 25.201071,134.974991 32.898594,134.459473 
	C32.917324,142.279709 32.875214,149.634277 32.833103,156.988861 
z"/>
<path fill="#1A4561" opacity="1.000000" stroke="none" 
	d="
M275.167511,218.988892 
	C280.917480,218.642319 286.666107,218.270828 292.417877,217.957733 
	C296.424164,217.739639 298.515289,215.963348 298.041656,211.680573 
	C297.901001,210.408783 298.287079,209.078766 298.617188,207.433380 
	C298.839783,217.102142 298.877014,227.112930 298.853607,237.596054 
	C294.726044,244.238312 287.905365,241.277206 282.465668,242.889023 
	C280.494354,243.473129 278.206360,242.988449 275.565430,242.522827 
	C275.101196,234.365768 275.134369,226.677322 275.167511,218.988892 
z"/>
<path fill="#295675" opacity="1.000000" stroke="none" 
	d="
M298.885071,154.522781 
	C291.553345,155.983337 284.273712,156.978531 276.527252,157.515396 
	C276.096771,149.034180 276.133118,141.011307 276.169464,132.988419 
	C283.473022,132.008179 290.776581,131.027939 298.454834,130.017334 
	C298.865387,138.010452 298.901276,146.033936 298.885071,154.522781 
z"/>
<path fill="#30607F" opacity="1.000000" stroke="none" 
	d="
M32.837753,133.993820 
	C25.201071,134.974991 17.564390,135.956177 9.532131,136.965683 
	C9.103255,129.970230 9.069955,122.946457 9.515561,115.449554 
	C17.608742,113.981201 25.223017,112.985977 32.900826,112.456245 
	C32.922161,119.945763 32.879959,126.969788 32.837753,133.993820 
z"/>
<path fill="#38688A" opacity="1.000000" stroke="none" 
	d="
M9.174757,96.991287 
	C9.127681,90.302780 9.080605,83.614273 9.489214,76.431145 
	C17.575319,74.622665 25.205736,73.308815 32.900063,72.459915 
	C32.920628,79.280762 32.877281,85.636642 32.477116,92.075653 
	C24.471783,93.769615 16.823271,95.380455 9.174757,96.991287 
z"/>
<path fill="#356585" opacity="1.000000" stroke="none" 
	d="
M9.113888,97.456329 
	C16.823271,95.380455 24.471783,93.769615 32.541054,92.540779 
	C32.920307,99.278770 32.878799,105.634766 32.837292,111.990761 
	C25.223017,112.985977 17.608742,113.981201 9.579306,114.984337 
	C9.127102,109.301956 9.090060,103.611671 9.113888,97.456329 
z"/>
<path fill="#3B6C8D" opacity="1.000000" stroke="none" 
	d="
M32.836155,71.994965 
	C25.205736,73.308815 17.575319,74.622665 9.550454,75.965874 
	C9.113943,69.638763 9.071878,63.282299 9.498747,56.495270 
	C17.965141,57.826687 25.640795,57.191582 32.902763,53.459122 
	C32.923580,59.947575 32.879868,65.971268 32.836155,71.994965 
z"/>
<path fill="#38688A" opacity="1.000000" stroke="none" 
	d="
M255.907257,59.566010 
	C253.423737,60.909340 250.868973,62.384487 248.131592,62.912140 
	C241.996307,64.094765 235.770172,64.806221 228.934540,65.725166 
	C224.155319,61.507492 220.022583,57.274193 215.889847,53.040897 
	C225.038223,51.787140 234.186615,50.533379 243.724976,49.115128 
	C247.994354,52.389690 251.873749,55.828743 255.907257,59.566010 
z"/>
<path fill="#3E6F92" opacity="1.000000" stroke="none" 
	d="
M32.838242,52.994366 
	C25.640795,57.191582 17.965141,57.826687 9.561370,56.030312 
	C9.116974,54.266933 9.078890,52.537945 9.106734,50.380756 
	C10.613592,44.660915 14.241739,43.080723 19.494411,42.846783 
	C23.817627,42.654236 28.080463,41.106022 32.702324,40.558369 
	C32.969139,44.970196 32.903690,48.982281 32.838242,52.994366 
z"/>
<path fill="#000000" opacity="1.000000" stroke="none" 
	d="
M32.902763,53.459122 
	C32.903690,48.982281 32.969139,44.970196 33.077927,40.499359 
	C34.085281,34.408894 38.951542,30.794348 44.670498,30.839943 
	C82.133270,31.138607 119.599762,30.970463 157.529892,30.893810 
	C167.414993,30.832844 176.835220,30.832844 187.046722,30.832844 
	C187.046722,34.588013 187.046722,37.833660 187.107025,41.536652 
	C187.127899,48.682602 187.088455,55.371201 187.040909,62.989876 
	C187.076538,71.276817 187.120255,78.633682 187.101562,86.414108 
	C187.825943,92.833176 187.722839,99.095398 192.180176,103.990791 
	C197.437790,112.667885 205.035980,117.858788 215.161819,118.927597 
	C218.757156,119.307091 222.429214,118.959610 226.529892,118.887329 
	C243.050964,119.109772 259.108398,119.388870 276.061371,119.683533 
	C276.061371,124.255440 276.061371,128.160614 276.115417,132.527100 
	C276.133118,141.011307 276.096771,149.034180 276.112366,157.522385 
	C276.131561,168.343201 276.098816,178.698685 276.115875,189.519531 
	C275.799530,199.350464 275.433380,208.716049 275.117371,218.535278 
	C275.134369,226.677322 275.101196,234.365768 275.115845,242.519684 
	C275.108948,278.949158 275.025604,314.913116 275.037384,350.877075 
	C275.038757,355.141724 274.181274,358.865417 270.300232,361.118866 
	C268.681580,362.058685 266.712921,362.926361 264.902344,362.928558 
	C191.304489,363.016418 117.706497,363.013367 44.108543,362.980927 
	C36.879654,362.977753 32.162476,358.636108 32.090752,351.225159 
	C31.886114,330.080231 31.942131,308.931641 32.062653,287.785400 
	C32.104202,280.495392 32.637955,273.208191 32.890175,265.453003 
	C32.861469,257.632080 32.889450,250.277847 32.864731,242.456787 
	C32.856331,232.965439 32.900635,223.940887 32.881378,214.450134 
	C32.863354,204.629181 32.908894,195.274429 32.893188,185.453522 
	C32.873943,175.965103 32.915936,166.942841 32.895515,157.454727 
	C32.875214,149.634277 32.917324,142.279709 32.898594,134.459473 
	C32.879959,126.969788 32.922161,119.945763 32.900826,112.456245 
	C32.878799,105.634766 32.920307,99.278770 32.897873,92.457657 
	C32.877281,85.636642 32.920628,79.280762 32.900063,72.459915 
	C32.879868,65.971268 32.923580,59.947575 32.902763,53.459122 
M97.265038,226.234695 
	C97.458984,218.700378 97.762642,211.165878 97.750900,203.631882 
	C97.748650,202.189056 96.632301,200.670853 95.813118,199.318817 
	C90.062195,189.827133 78.490372,184.691254 65.333275,190.208099 
	C63.367420,192.156311 61.208378,193.950729 59.496365,196.101044 
	C58.107681,197.845276 57.255997,200.017059 55.816635,202.695038 
	C54.932949,207.463409 54.049263,212.231796 52.808384,217.709961 
	C51.594849,223.805969 50.381313,229.901978 49.020542,236.836334 
	C48.374043,240.496475 47.622917,244.141815 47.103313,247.819885 
	C46.090401,254.989914 48.587509,264.779907 55.902359,269.646820 
	C64.523911,275.383209 72.745262,274.292145 81.233162,270.159790 
	C82.708015,269.441742 83.846298,268.032440 85.383438,266.225220 
	C86.232750,265.883942 87.650986,265.734497 87.841003,265.170959 
	C89.306778,260.823792 90.534660,256.396393 91.976204,251.151489 
	C92.036720,249.671539 91.490791,247.570770 92.261520,246.817902 
	C95.816505,243.345383 94.963524,239.149750 94.988731,234.232162 
	C95.608971,231.817078 96.229202,229.401978 97.265038,226.234695 
M160.145523,241.391403 
	C159.485901,246.260437 158.826294,251.129486 157.997192,256.820801 
	C157.053696,263.212982 156.110199,269.605133 155.001190,276.794067 
	C154.001053,282.340576 152.370621,287.861664 152.145767,293.439453 
	C151.792084,302.213806 156.050720,309.333801 163.934235,312.800171 
	C172.036224,316.362640 180.541153,315.803741 188.787079,310.031952 
	C195.551712,304.582733 197.799408,297.405670 196.985901,288.265747 
	C197.928818,283.848267 198.871735,279.430756 199.972931,274.213654 
	C200.935059,271.140106 201.897202,268.066589 202.987717,264.086975 
	C203.208481,260.659668 202.302002,256.516357 203.916626,253.974442 
	C206.283508,250.248291 205.973068,246.758698 205.992584,242.129440 
	C206.535995,235.176407 210.535034,228.758316 209.193130,221.509216 
	C209.169342,221.380783 209.290543,221.191727 209.395309,221.078232 
	C213.234406,216.919250 211.936996,211.875031 211.975662,206.224228 
	C212.991165,203.879913 214.578766,201.611649 214.902603,199.175385 
	C215.568817,194.163651 215.559250,189.062088 215.973297,183.154282 
	C216.182892,181.711563 216.273880,180.239456 216.622864,178.831284 
	C218.047592,173.082565 218.324997,167.705368 216.213638,161.719772 
	C211.102127,147.228790 189.582886,143.021439 179.240814,155.239029 
	C173.153305,161.994354 173.644089,170.776855 171.228516,179.326721 
	C170.113495,187.538483 168.998459,195.750259 167.195358,204.376999 
	C165.853012,211.584045 164.510666,218.791092 163.022278,226.867188 
	C162.301056,231.559341 161.579849,236.251480 160.145523,241.391403 
M103.001976,254.785034 
	C102.248688,257.736938 101.508987,260.692413 100.739655,263.640137 
	C98.035660,274.000427 101.863365,283.511658 109.222832,289.030579 
	C115.688126,293.878967 130.899414,293.326019 137.704712,287.701843 
	C139.789505,284.804352 142.646103,282.176910 143.776794,278.945526 
	C145.441254,274.188568 145.874878,269.000946 146.963684,263.258545 
	C146.823563,262.500031 146.459137,261.704102 146.578323,260.988800 
	C147.671555,254.427673 148.773666,247.865967 150.039841,241.336746 
	C150.517899,238.871490 151.431747,236.490753 152.815140,233.676178 
	C153.025589,229.457977 152.234192,224.848465 153.691483,221.117249 
	C155.663574,216.067947 156.253601,211.198959 155.996002,205.191162 
	C156.473907,203.166367 157.091064,201.163025 157.407196,199.113297 
	C159.518661,185.423065 157.767990,174.969421 141.955566,169.475235 
	C136.459305,167.565506 126.792053,169.725250 122.241798,173.993118 
	C121.238693,174.793640 120.093597,175.468445 119.255516,176.415070 
	C113.790619,182.587753 113.767288,190.402405 112.198677,198.358688 
	C110.521477,208.238205 108.844276,218.117706 107.018936,228.810074 
	C105.734848,237.205933 104.450768,245.601807 103.001976,254.785034 
M258.981537,255.225372 
	C259.415009,251.241562 259.426880,247.156158 260.358093,243.292297 
	C263.640533,229.672195 256.775146,218.062149 243.309525,215.224884 
	C234.453613,213.358887 224.113266,217.254883 220.224915,225.255981 
	C219.537964,226.337387 218.458466,227.340927 218.226105,228.512482 
	C216.349609,237.973969 214.632355,247.467041 212.150208,257.399078 
	C211.459244,261.894012 210.354950,266.373474 210.185760,270.887970 
	C209.990189,276.106445 209.748611,281.586578 211.064667,286.544983 
	C214.059753,297.829346 230.138565,305.452118 243.199280,297.248444 
	C246.063187,295.449554 250.319656,294.852203 250.935745,289.989288 
	C251.531631,289.820465 252.598236,289.746368 252.654083,289.468872 
	C253.832962,283.610962 254.933990,277.736450 255.959595,271.849365 
	C256.213409,270.392334 255.554367,268.152863 256.332642,267.515259 
	C260.346375,264.226959 258.747070,259.979034 258.981537,255.225372 
z"/>
<path fill="#000000" opacity="1.000000" stroke="none" 
	d="
M215.572418,52.885735 
	C220.022583,57.274193 224.155319,61.507492 228.580688,65.890846 
	C236.349747,73.604996 243.826172,81.169083 251.593292,88.887421 
	C253.699585,91.097855 255.515152,93.154030 258.065216,96.042007 
	C244.352554,96.042007 231.637085,96.042007 218.147278,95.941330 
	C211.713791,92.938019 209.713394,88.043777 209.893860,81.529144 
	C209.913223,74.705856 209.874527,68.347458 209.835815,61.989063 
	C209.889160,59.891884 209.946564,57.794796 209.995041,55.697502 
	C210.111465,50.660389 210.513580,50.432537 215.572418,52.885735 
z"/>
<path fill="#336382" opacity="1.000000" stroke="none" 
	d="
M209.835800,81.994034 
	C209.713394,88.043777 211.713791,92.938019 217.681702,96.003510 
	C216.685410,97.485085 215.605621,99.486900 214.036392,100.004265 
	C207.251282,102.241264 200.517593,105.099159 192.628189,103.992844 
	C187.722839,99.095398 187.825943,92.833176 187.488754,86.329231 
	C195.237503,84.545212 202.536652,83.269623 209.835800,81.994034 
z"/>
<path fill="#366687" opacity="1.000000" stroke="none" 
	d="
M209.893860,81.529144 
	C202.536652,83.269623 195.237503,84.545212 187.551163,85.905678 
	C187.120255,78.633682 187.076538,71.276817 187.098358,63.454578 
	C194.429489,62.657650 201.695053,62.326092 209.398224,61.991798 
	C209.874527,68.347458 209.913223,74.705856 209.893860,81.529144 
z"/>
<path fill="#F9B728" opacity="1.000000" stroke="none" 
	d="
M212.866501,256.950470 
	C214.632355,247.467041 216.349609,237.973969 218.226105,228.512482 
	C218.458466,227.340927 219.537964,226.337387 220.851303,225.276215 
	C233.290085,236.470444 245.102478,247.644455 257.007416,258.906006 
	C257.310120,258.428314 258.077576,257.217163 258.845032,256.006012 
	C258.747070,259.979034 260.346375,264.226959 256.332642,267.515259 
	C255.554367,268.152863 256.213409,270.392334 255.959595,271.849365 
	C254.933990,277.736450 253.832962,283.610962 252.654083,289.468872 
	C252.598236,289.746368 251.531631,289.820465 250.209442,289.869293 
	C245.782089,286.444489 241.906708,283.312683 238.418091,279.797089 
	C232.103531,273.433685 226.152725,266.705566 219.752502,260.433350 
	C218.001312,258.717163 215.190857,258.081818 212.866501,256.950470 
z"/>
<path fill="#F69E30" opacity="1.000000" stroke="none" 
	d="
M152.146957,234.071487 
	C151.431747,236.490753 150.517899,238.871490 150.039841,241.336746 
	C148.773666,247.865967 147.671555,254.427673 146.578323,260.988800 
	C146.459137,261.704102 146.823563,262.500031 146.563568,263.555511 
	C144.157623,262.450256 141.898087,261.303314 140.187897,259.603638 
	C130.377640,249.853806 120.722046,239.948486 110.936409,230.173538 
	C109.944778,229.182999 108.435921,228.710251 107.167076,227.997223 
	C108.844276,218.117706 110.521477,208.238205 112.894547,198.226349 
	C115.394051,199.230637 117.522919,200.057663 118.947884,201.554718 
	C127.422386,210.457779 135.631805,219.614594 144.170166,228.454453 
	C146.389114,230.751770 149.464798,232.221588 152.146957,234.071487 
z"/>
<path fill="#F9B728" opacity="1.000000" stroke="none" 
	d="
M215.827789,183.997498 
	C215.559250,189.062088 215.568817,194.163651 214.902603,199.175385 
	C214.578766,201.611649 212.991165,203.879913 211.718353,206.933563 
	C210.618591,209.300964 209.776154,210.959030 208.933701,212.617096 
	C207.322250,211.611069 205.551102,210.787094 204.141602,209.550827 
	C202.542511,208.148270 201.389435,206.246017 199.831039,204.786774 
	C190.572479,196.117294 181.252670,187.513199 171.953445,178.887115 
	C173.644089,170.776855 173.153305,161.994354 179.919922,155.169357 
	C184.599136,158.197281 188.900223,160.980850 192.532700,164.462067 
	C198.841843,170.508560 204.644272,177.082184 210.904358,183.183228 
	C211.881714,184.135742 214.154190,183.759384 215.827789,183.997498 
z"/>
<path fill="#F7A62D" opacity="1.000000" stroke="none" 
	d="
M152.481049,233.873840 
	C149.464798,232.221588 146.389114,230.751770 144.170166,228.454453 
	C135.631805,219.614594 127.422386,210.457779 118.947884,201.554718 
	C117.522919,200.057663 115.394051,199.230637 113.237122,198.022446 
	C113.767288,190.402405 113.790619,182.587753 119.255516,176.415070 
	C120.093597,175.468445 121.238693,174.793640 122.773026,174.238571 
	C128.234772,179.826675 132.936691,185.406067 138.157715,190.447861 
	C143.796555,195.893127 149.920624,200.835907 155.833038,205.997894 
	C156.253601,211.198959 155.663574,216.067947 153.691483,221.117249 
	C152.234192,224.848465 153.025589,229.457977 152.481049,233.873840 
z"/>
<path fill="#F8B02A" opacity="1.000000" stroke="none" 
	d="
M171.590973,179.106918 
	C181.252670,187.513199 190.572479,196.117294 199.831039,204.786774 
	C201.389435,206.246017 202.542511,208.148270 204.141602,209.550827 
	C205.551102,210.787094 207.322250,211.611069 208.933701,212.617096 
	C209.776154,210.959030 210.618591,209.300964 211.641968,207.339035 
	C211.936996,211.875031 213.234406,216.919250 209.395309,221.078232 
	C209.290543,221.191727 209.169342,221.380783 209.193130,221.509216 
	C210.535034,228.758316 206.535995,235.176407 205.703613,242.312134 
	C194.046967,230.273636 182.698395,218.034500 171.272781,205.867722 
	C170.426346,204.966400 169.026169,204.585083 167.883438,203.962021 
	C168.998459,195.750259 170.113495,187.538483 171.590973,179.106918 
z"/>
<path fill="#F69733" opacity="1.000000" stroke="none" 
	d="
M107.093002,228.403656 
	C108.435921,228.710251 109.944778,229.182999 110.936409,230.173538 
	C120.722046,239.948486 130.377640,249.853806 140.187897,259.603638 
	C141.898087,261.303314 144.157623,262.450256 146.498123,263.924622 
	C145.874878,269.000946 145.441254,274.188568 143.776794,278.945526 
	C142.646103,282.176910 139.789505,284.804352 137.268402,287.446167 
	C134.022980,284.414459 131.140518,281.708282 128.418930,278.848938 
	C121.128937,271.190033 113.939247,263.435364 106.617233,255.807495 
	C105.764259,254.918930 104.330948,254.587418 103.166687,253.997665 
	C104.450768,245.601807 105.734848,237.205933 107.093002,228.403656 
z"/>
<path fill="#F8AF2A" opacity="1.000000" stroke="none" 
	d="
M212.508362,257.174774 
	C215.190857,258.081818 218.001312,258.717163 219.752502,260.433350 
	C226.152725,266.705566 232.103531,273.433685 238.418091,279.797089 
	C241.906708,283.312683 245.782089,286.444489 249.794708,289.899323 
	C250.319656,294.852203 246.063187,295.449554 243.199280,297.248444 
	C230.138565,305.452118 214.059753,297.829346 211.064667,286.544983 
	C209.748611,281.586578 209.990189,276.106445 210.185760,270.887970 
	C210.354950,266.373474 211.459244,261.894012 212.508362,257.174774 
z"/>
<path fill="#F9BE25" opacity="1.000000" stroke="none" 
	d="
M258.913269,255.615692 
	C258.077576,257.217163 257.310120,258.428314 257.007416,258.906006 
	C245.102478,247.644455 233.290085,236.470444 221.184814,225.124573 
	C224.113266,217.254883 234.453613,213.358887 243.309525,215.224884 
	C256.775146,218.062149 263.640533,229.672195 260.358093,243.292297 
	C259.426880,247.156158 259.415009,251.241562 258.913269,255.615692 
z"/>
<path fill="#F7A92C" opacity="1.000000" stroke="none" 
	d="
M167.539398,204.169510 
	C169.026169,204.585083 170.426346,204.966400 171.272781,205.867722 
	C182.698395,218.034500 194.046967,230.273636 205.631500,242.734634 
	C205.973068,246.758698 206.283508,250.248291 203.916626,253.974442 
	C202.302002,256.516357 203.208481,260.659668 202.598724,264.459198 
	C201.662552,264.474640 201.012939,264.212433 200.583206,263.747192 
	C190.165405,252.468948 179.830795,241.112839 169.309357,229.932465 
	C167.693436,228.215332 165.236359,227.289780 163.168304,225.998138 
	C164.510666,218.791092 165.853012,211.584045 167.539398,204.169510 
z"/>
<path fill="#F69E30" opacity="1.000000" stroke="none" 
	d="
M155.166718,275.997314 
	C156.110199,269.605133 157.053696,263.212982 158.431870,256.433990 
	C159.637680,256.320282 160.614014,256.381012 161.149353,256.898193 
	C169.838577,265.292938 178.501740,273.715302 187.101013,282.202118 
	C189.974258,285.037781 191.832870,289.239349 196.832825,288.999023 
	C197.799408,297.405670 195.551712,304.582733 188.381592,309.720337 
	C186.859863,308.072479 185.842789,306.635223 184.606720,305.420898 
	C182.028976,302.888519 179.247955,300.560730 176.706177,297.994598 
	C169.484467,290.703674 162.340988,283.335236 155.166718,275.997314 
z"/>
<path fill="#F58F35" opacity="1.000000" stroke="none" 
	d="
M49.167778,235.997986 
	C50.381313,229.901978 51.594849,223.805969 53.336731,217.378998 
	C55.132336,217.756943 56.645172,218.221970 57.628899,219.212463 
	C67.545509,229.197250 77.341301,239.302124 87.273895,249.270782 
	C88.485390,250.486679 90.300774,251.100861 91.836304,251.993896 
	C90.534660,256.396393 89.306778,260.823792 87.841003,265.170959 
	C87.650986,265.734497 86.232750,265.883942 84.885330,266.576965 
	C78.571022,262.253540 72.579651,257.777191 66.985703,252.849686 
	C60.855175,247.449524 55.091381,241.633041 49.167778,235.997986 
z"/>
<path fill="#F59134" opacity="1.000000" stroke="none" 
	d="
M103.084328,254.391357 
	C104.330948,254.587418 105.764259,254.918930 106.617233,255.807495 
	C113.939247,263.435364 121.128937,271.190033 128.418930,278.848938 
	C131.140518,281.708282 134.022980,284.414459 136.915756,287.510620 
	C130.899414,293.326019 115.688126,293.878967 109.222832,289.030579 
	C101.863365,283.511658 98.035660,274.000427 100.739655,263.640137 
	C101.508987,260.692413 102.248688,257.736938 103.084328,254.391357 
z"/>
<path fill="#F69733" opacity="1.000000" stroke="none" 
	d="
M155.083954,276.395691 
	C162.340988,283.335236 169.484467,290.703674 176.706177,297.994598 
	C179.247955,300.560730 182.028976,302.888519 184.606720,305.420898 
	C185.842789,306.635223 186.859863,308.072479 188.012817,309.769409 
	C180.541153,315.803741 172.036224,316.362640 163.934235,312.800171 
	C156.050720,309.333801 151.792084,302.213806 152.145767,293.439453 
	C152.370621,287.861664 154.001053,282.340576 155.083954,276.395691 
z"/>
<path fill="#F9BE25" opacity="1.000000" stroke="none" 
	d="
M215.900543,183.575897 
	C214.154190,183.759384 211.881714,184.135742 210.904358,183.183228 
	C204.644272,177.082184 198.841843,170.508560 192.532700,164.462067 
	C188.900223,160.980850 184.599136,158.197281 180.241852,155.028580 
	C189.582886,143.021439 211.102127,147.228790 216.213638,161.719772 
	C218.324997,167.705368 218.047592,173.082565 216.622864,178.831284 
	C216.273880,180.239456 216.182892,181.711563 215.900543,183.575897 
z"/>
<path fill="#F48937" opacity="1.000000" stroke="none" 
	d="
M49.094158,236.417160 
	C55.091381,241.633041 60.855175,247.449524 66.985703,252.849686 
	C72.579651,257.777191 78.571022,262.253540 84.763626,266.935547 
	C83.846298,268.032440 82.708015,269.441742 81.233162,270.159790 
	C72.745262,274.292145 64.523911,275.383209 55.902359,269.646820 
	C48.587509,264.779907 46.090401,254.989914 47.103313,247.819885 
	C47.622917,244.141815 48.374043,240.496475 49.094158,236.417160 
z"/>
<path fill="#F7AC2B" opacity="1.000000" stroke="none" 
	d="
M155.914520,205.594528 
	C149.920624,200.835907 143.796555,195.893127 138.157715,190.447861 
	C132.936691,185.406067 128.234772,179.826675 123.128288,174.188293 
	C126.792053,169.725250 136.459305,167.565506 141.955566,169.475235 
	C157.767990,174.969421 159.518661,185.423065 157.407196,199.113297 
	C157.091064,201.163025 156.473907,203.166367 155.914520,205.594528 
z"/>
<path fill="#F59134" opacity="1.000000" stroke="none" 
	d="
M91.906250,251.572693 
	C90.300774,251.100861 88.485390,250.486679 87.273895,249.270782 
	C77.341301,239.302124 67.545509,229.197250 57.628899,219.212463 
	C56.645172,218.221970 55.132336,217.756943 53.515327,217.024109 
	C54.049263,212.231796 54.932949,207.463409 56.326077,202.420166 
	C58.374737,203.084869 60.211823,203.743484 61.405457,205.009018 
	C70.003250,214.124741 78.619972,223.232285 86.887314,232.644058 
	C89.330887,235.425903 91.381706,236.902328 94.847885,235.019409 
	C94.963524,239.149750 95.816505,243.345383 92.261520,246.817902 
	C91.490791,247.570770 92.036720,249.671539 91.906250,251.572693 
z"/>
<path fill="#F6A22E" opacity="1.000000" stroke="none" 
	d="
M196.909363,288.632385 
	C191.832870,289.239349 189.974258,285.037781 187.101013,282.202118 
	C178.501740,273.715302 169.838577,265.292938 161.149353,256.898193 
	C160.614014,256.381012 159.637680,256.320282 158.516602,256.022858 
	C158.826294,251.129486 159.485901,246.260437 160.888977,241.183884 
	C163.605835,242.002045 166.021606,242.606461 167.472336,244.129883 
	C172.462524,249.370102 176.985931,255.052872 181.935287,260.334534 
	C186.314392,265.007660 190.945419,269.456329 195.654587,273.798767 
	C196.605804,274.675873 198.405914,274.632355 199.814651,275.013275 
	C198.871735,279.430756 197.928818,283.848267 196.909363,288.632385 
z"/>
<path fill="#F7A62D" opacity="1.000000" stroke="none" 
	d="
M199.893799,274.613464 
	C198.405914,274.632355 196.605804,274.675873 195.654587,273.798767 
	C190.945419,269.456329 186.314392,265.007660 181.935287,260.334534 
	C176.985931,255.052872 172.462524,249.370102 167.472336,244.129883 
	C166.021606,242.606461 163.605835,242.002045 161.245544,240.959991 
	C161.579849,236.251480 162.301056,231.559341 163.095291,226.432663 
	C165.236359,227.289780 167.693436,228.215332 169.309357,229.932465 
	C179.830795,241.112839 190.165405,252.468948 200.583206,263.747192 
	C201.012939,264.212433 201.662552,264.474640 202.534531,264.912231 
	C201.897202,268.066589 200.935059,271.140106 199.893799,274.613464 
z"/>
<path fill="#F69733" opacity="1.000000" stroke="none" 
	d="
M94.918304,234.625793 
	C91.381706,236.902328 89.330887,235.425903 86.887314,232.644058 
	C78.619972,223.232285 70.003250,214.124741 61.405457,205.009018 
	C60.211823,203.743484 58.374737,203.084869 56.500832,202.072266 
	C57.255997,200.017059 58.107681,197.845276 59.496365,196.101044 
	C61.208378,193.950729 63.367420,192.156311 65.690887,190.545364 
	C68.108078,193.504349 70.004120,196.277069 72.258820,198.718597 
	C78.294029,205.253906 84.257751,211.885651 90.715149,217.986618 
	C93.535439,220.651245 96.231392,222.998001 96.849434,226.986893 
	C96.229202,229.401978 95.608971,231.817078 94.918304,234.625793 
z"/>
<path fill="#F69A31" opacity="1.000000" stroke="none" 
	d="
M97.057236,226.610794 
	C96.231392,222.998001 93.535439,220.651245 90.715149,217.986618 
	C84.257751,211.885651 78.294029,205.253906 72.258820,198.718597 
	C70.004120,196.277069 68.108078,193.504349 66.024719,190.525146 
	C78.490372,184.691254 90.062195,189.827133 95.813118,199.318817 
	C96.632301,200.670853 97.748650,202.189056 97.750900,203.631882 
	C97.762642,211.165878 97.458984,218.700378 97.057236,226.610794 
z"/>
</svg>